<svg width="475" height="331" viewBox="0 0 475 331" fill="none" xmlns="http://www.w3.org/2000/svg">
<path d="M238.814 328.257L470 194.903L237.302 61.3855L5 195.182L238.814 328.257Z" stroke="#FCFFE7" stroke-width="4.67665" stroke-miterlimit="10"/>
<path d="M92.019 49.2428V244.262C95.5779 244.773 98.9041 246.867 100.742 251.077C101.021 251.891 101.37 252.659 101.788 253.403C110.651 257.986 120.071 261.358 128.84 266.173C136.982 270.639 144.355 276.338 152.868 280.083C154.543 280.828 155.869 281.967 156.939 283.317H263.891V49.2428H92.019Z" fill="url(#paint0_linear_171_13488)"/>
<path d="M122.675 183.412H233.255" stroke="#5D7EE8" stroke-width="1.86743" stroke-miterlimit="10"/>
<path d="M122.675 159.639H233.255" stroke="#5D7EE8" stroke-width="1.86743" stroke-miterlimit="10"/>
<path d="M122.675 207.486H233.255" stroke="#5D7EE8" stroke-width="1.86743" stroke-miterlimit="10"/>
<path d="M122.675 231.539H233.255" stroke="#5D7EE8" stroke-width="1.86743" stroke-miterlimit="10"/>
<path d="M122.675 255.613H233.255" stroke="#5D7EE8" stroke-width="1.86743" stroke-miterlimit="10"/>
<path d="M319.204 8.81592H147.333V242.89H319.204V8.81592Z" fill="url(#paint1_linear_171_13488)"/>
<path d="M177.967 143.008H288.547" stroke="#5D7EE8" stroke-width="1.86743" stroke-miterlimit="10"/>
<path d="M177.967 119.235H288.547" stroke="#5D7EE8" stroke-width="1.86743" stroke-miterlimit="10"/>
<path d="M177.967 167.059H288.547" stroke="#5D7EE8" stroke-width="1.86743" stroke-miterlimit="10"/>
<path d="M177.967 191.134H288.547" stroke="#5D7EE8" stroke-width="1.86743" stroke-miterlimit="10"/>
<path d="M177.967 215.186H288.547" stroke="#5D7EE8" stroke-width="1.86743" stroke-miterlimit="10"/>
<path d="M319.04 281.224C319.947 280.689 320.877 280.223 321.808 279.758L321.761 279.688C332.787 274.106 344.068 269.058 355.21 263.731C365.026 259.009 373.283 252.427 382.843 247.519C382.89 247.519 382.936 247.495 382.983 247.472V50.0341H211.111V284.108H315.946C316.69 283.015 317.714 282.014 319.063 281.224H319.04Z" fill="url(#paint2_linear_171_13488)"/>
<path d="M241.744 184.203H352.348" stroke="#5D7EE8" stroke-width="1.86743" stroke-miterlimit="10"/>
<path d="M241.744 160.43H352.348" stroke="#5D7EE8" stroke-width="1.86743" stroke-miterlimit="10"/>
<path d="M241.744 208.254H352.348" stroke="#5D7EE8" stroke-width="1.86743" stroke-miterlimit="10"/>
<path d="M241.744 232.329H352.348" stroke="#5D7EE8" stroke-width="1.86743" stroke-miterlimit="10"/>
<path d="M241.744 256.381H352.348" stroke="#5D7EE8" stroke-width="1.86743" stroke-miterlimit="10"/>
<path d="M325.623 133.518C319.575 126.842 313.458 120.073 307.48 113.467C326.554 96.2072 345.86 78.7151 365.096 61.2927C371.051 67.8755 377.168 74.6444 383.239 81.3436C364.073 98.6961 344.79 116.165 325.646 133.494L325.623 133.518Z" fill="url(#paint3_linear_171_13488)"/>
<path d="M386.497 78.1101C380.565 71.5738 374.471 64.8514 368.377 58.1057C385.962 42.172 403.64 26.1686 421.132 10.328C427.133 16.9573 433.25 23.703 439.252 30.3091L386.474 78.1101H386.497Z" fill="url(#paint4_linear_171_13488)"/>
<path d="M295.594 142.356C298.735 133.82 301.735 125.609 304.736 117.421C310.295 123.562 315.738 129.563 321.321 135.727C312.854 137.914 304.41 140.077 295.594 142.356Z" fill="url(#paint5_linear_171_13488)"/>
<path d="M361.933 43.3581C360.956 42.3114 361.305 41.1716 363.073 39.5666C375.959 27.8897 388.869 16.2127 401.755 4.5358C403.848 2.65168 404.453 2.67488 406.291 4.76835C408.803 7.62944 411.315 10.4906 413.804 13.2819C412.757 14.2821 411.873 15.1194 411.013 15.9568C408.617 13.3981 406.198 10.8628 403.546 8.04821C402.895 8.74604 402.243 9.53689 401.499 10.2115C389.613 21.0045 377.704 31.7743 365.818 42.5441C363.98 44.1956 362.933 44.4281 361.933 43.3349V43.3581Z" fill="url(#paint6_linear_171_13488)"/>
<path d="M439.366 23.1911C435.644 19.0507 432.062 15.0963 428.527 11.1652C432.411 7.65279 436.528 3.93108 440.878 0C444.32 4.02412 447.81 8.09485 451.159 12.0027C447.344 15.6081 443.297 19.4694 439.366 23.1911Z" fill="url(#paint7_linear_171_13488)"/>
<path d="M5 195.019L238.814 328.071L470 194.74" stroke="#FCFFE7" stroke-width="4.67665" stroke-miterlimit="10"/>
<defs>
<linearGradient id="paint0_linear_171_13488" x1="177.966" y1="49.2428" x2="177.966" y2="283.317" gradientUnits="userSpaceOnUse">
<stop stop-color="#FCFFE7"/>
<stop offset="0.08" stop-color="#E6FAEB"/>
<stop offset="0.2" stop-color="#CEF5F1"/>
<stop offset="0.27" stop-color="#C6F4F3"/>
<stop offset="0.42" stop-color="#C3F0F2"/>
<stop offset="0.56" stop-color="#B9E6F1"/>
<stop offset="0.68" stop-color="#AAD4F0"/>
<stop offset="0.8" stop-color="#94BBED"/>
<stop offset="0.91" stop-color="#779CEA"/>
<stop offset="1" stop-color="#5D7EE8"/>
</linearGradient>
<linearGradient id="paint1_linear_171_13488" x1="233.257" y1="242.913" x2="233.257" y2="8.81592" gradientUnits="userSpaceOnUse">
<stop stop-color="#FCFFE7"/>
<stop offset="0.15" stop-color="#E6FAEB"/>
<stop offset="0.36" stop-color="#CEF5F1"/>
<stop offset="0.49" stop-color="#C6F4F3"/>
<stop offset="0.6" stop-color="#C3F0F2"/>
<stop offset="0.69" stop-color="#B9E6F1"/>
<stop offset="0.78" stop-color="#AAD4F0"/>
<stop offset="0.86" stop-color="#94BBED"/>
<stop offset="0.94" stop-color="#779CEA"/>
<stop offset="1" stop-color="#5D7EE8"/>
</linearGradient>
<linearGradient id="paint2_linear_171_13488" x1="297.035" y1="50.0341" x2="297.035" y2="284.108" gradientUnits="userSpaceOnUse">
<stop stop-color="#FCFFE7"/>
<stop offset="0.58" stop-color="#DEF8ED"/>
<stop offset="1" stop-color="#C6F4F3"/>
</linearGradient>
<linearGradient id="paint3_linear_171_13488" x1="308.171" y1="95.6411" x2="382.142" y2="99.2976" gradientUnits="userSpaceOnUse">
<stop stop-color="#C6F4F3"/>
<stop offset="0.18" stop-color="#99C2EE"/>
<stop offset="0.38" stop-color="#6D91E9"/>
<stop offset="0.48" stop-color="#5D7EE8"/>
<stop offset="0.51" stop-color="#5876DD"/>
<stop offset="0.75" stop-color="#384294"/>
<stop offset="0.92" stop-color="#242267"/>
<stop offset="1" stop-color="#1D1656"/>
</linearGradient>
<linearGradient id="paint4_linear_171_13488" x1="368.972" y1="42.5659" x2="438.296" y2="45.9928" gradientUnits="userSpaceOnUse">
<stop stop-color="#C6F4F3"/>
<stop offset="0.18" stop-color="#99C2EE"/>
<stop offset="0.38" stop-color="#6D91E9"/>
<stop offset="0.48" stop-color="#5D7EE8"/>
<stop offset="0.51" stop-color="#5876DD"/>
<stop offset="0.75" stop-color="#384294"/>
<stop offset="0.92" stop-color="#242267"/>
<stop offset="1" stop-color="#1D1656"/>
</linearGradient>
<linearGradient id="paint5_linear_171_13488" x1="296.028" y1="129.765" x2="321.351" y2="131.017" gradientUnits="userSpaceOnUse">
<stop stop-color="#C6F4F3"/>
<stop offset="0.18" stop-color="#99C2EE"/>
<stop offset="0.38" stop-color="#6D91E9"/>
<stop offset="0.48" stop-color="#5D7EE8"/>
<stop offset="0.51" stop-color="#5876DD"/>
<stop offset="0.75" stop-color="#384294"/>
<stop offset="0.92" stop-color="#242267"/>
<stop offset="1" stop-color="#1D1656"/>
</linearGradient>
<linearGradient id="paint6_linear_171_13488" x1="362.203" y1="22.5983" x2="413.034" y2="25.111" gradientUnits="userSpaceOnUse">
<stop stop-color="#FCFFE7"/>
<stop offset="0.06" stop-color="#E6FAEB"/>
<stop offset="0.13" stop-color="#CEF5F1"/>
<stop offset="0.18" stop-color="#C6F4F3"/>
<stop offset="0.23" stop-color="#B9E5F1"/>
<stop offset="0.39" stop-color="#98C0EE"/>
<stop offset="0.55" stop-color="#7EA3EB"/>
<stop offset="0.7" stop-color="#6B8EE9"/>
<stop offset="0.85" stop-color="#6082E8"/>
<stop offset="1" stop-color="#5D7EE8"/>
</linearGradient>
<linearGradient id="paint7_linear_171_13488" x1="428.329" y1="11.0786" x2="450.957" y2="12.1972" gradientUnits="userSpaceOnUse">
<stop stop-color="#FCFFE7"/>
<stop offset="0.06" stop-color="#E6FAEB"/>
<stop offset="0.13" stop-color="#CEF5F1"/>
<stop offset="0.18" stop-color="#C6F4F3"/>
<stop offset="0.23" stop-color="#B9E5F1"/>
<stop offset="0.39" stop-color="#98C0EE"/>
<stop offset="0.55" stop-color="#7EA3EB"/>
<stop offset="0.7" stop-color="#6B8EE9"/>
<stop offset="0.85" stop-color="#6082E8"/>
<stop offset="1" stop-color="#5D7EE8"/>
</linearGradient>
</defs>
</svg>
