<svg width="476" height="362" viewBox="0 0 476 362" fill="none" xmlns="http://www.w3.org/2000/svg">
<path d="M239.311 358.696L470 225.789L237.803 92.6958L6 226.067L239.311 358.696Z" stroke="#FCFFE7" stroke-width="5" stroke-miterlimit="10"/>
<path d="M315.286 29.8498C315.24 10.6772 304.516 0 285.53 0C254.125 0 222.697 0.069644 191.293 0.0464326C170.844 0.0232213 160.446 10.1666 160.422 30.7087C160.353 105.171 160.376 179.633 160.376 254.095C160.376 274.173 171.146 284.803 191.455 284.827C222.187 284.85 252.941 284.827 283.696 284.827C304.818 284.827 315.24 274.405 315.263 253.259C315.286 216.353 315.263 179.447 315.263 142.564C315.263 105.008 315.309 67.4522 315.24 29.873L315.286 29.8498ZM225.436 16.6426C233.723 16.2712 242.055 16.2712 250.365 16.6426C251.897 16.7122 253.336 19.0797 254.821 20.3796C253.313 21.6098 251.92 23.722 250.295 23.9309C246.187 24.4416 242.009 24.0934 237.854 24.0934C233.908 24.0934 229.916 24.5112 226.063 23.9309C224.229 23.6524 222.651 21.5634 220.98 20.3099C222.465 19.0333 223.928 16.689 225.46 16.6193L225.436 16.6426ZM302.59 142.703C302.59 173.226 302.59 203.773 302.59 234.319C302.59 242.559 302.056 243.093 294.094 243.093C256.516 243.093 218.96 242.977 181.382 243.209C174.906 243.255 173.119 240.934 173.142 234.736C173.304 172.994 173.328 111.252 173.142 49.5098C173.119 43.1035 175.417 41.1306 181.637 41.1538C219.216 41.3627 256.771 41.3627 294.35 41.1538C300.779 41.1073 302.706 43.591 302.682 49.742C302.474 80.7291 302.59 111.693 302.59 142.703Z" fill="url(#paint0_linear_432_12234)"/>
<path d="M401.019 78.7839C400.508 101.647 392.918 121.678 377.39 138.576C374.396 141.826 371.007 144.867 366.899 140.665C363.185 136.905 365.901 133.609 368.709 130.476C395.982 99.883 396.006 57.8705 368.709 27.1618C365.692 23.7962 363.023 20.3377 367.363 16.5078C371.448 12.9565 374.605 15.9972 377.39 19.0379C392.895 35.9357 400.485 55.9671 400.996 78.7607L401.019 78.7839Z" fill="url(#paint1_linear_432_12234)"/>
<path d="M61.9033 78.7839C62.414 101.647 70.004 121.678 85.5322 138.576C88.5264 141.826 91.9152 144.867 96.0235 140.665C99.7373 136.905 97.0216 133.609 94.213 130.476C66.9401 99.883 66.9169 57.8705 94.213 27.1618C97.2305 23.7962 99.8997 20.3377 95.5593 16.5078C91.4741 12.9565 88.3175 15.9972 85.5322 19.0379C70.0272 35.9357 62.4372 55.9671 61.9266 78.7607L61.9033 78.7839Z" fill="url(#paint2_linear_432_12234)"/>
<path d="M369.801 78.9929C369.87 91.7359 365.855 103.109 358.265 113.276C355.735 116.688 352.694 119.543 348.423 116.224C344.57 113.23 346.102 109.91 348.516 106.475C361.491 88.1149 361.421 69.7083 348.33 50.9767C345.87 47.4486 344.779 44.1526 348.702 41.3208C352.74 38.3962 355.619 40.8798 358.079 44.1294C365.855 54.4584 369.893 66.0409 369.801 79.0161V78.9929Z" fill="url(#paint3_linear_432_12234)"/>
<path d="M93.122 78.9929C93.0523 91.7359 97.0678 103.109 104.658 113.276C107.188 116.688 110.228 119.543 114.499 116.224C118.352 113.23 116.82 109.91 114.406 106.475C101.431 88.1149 101.501 69.7083 114.592 50.9767C117.052 47.4486 118.143 44.1526 114.221 41.3208C110.182 38.3962 107.304 40.8798 104.843 44.1294C97.0678 54.4584 93.0291 66.0409 93.122 79.0161V78.9929Z" fill="url(#paint4_linear_432_12234)"/>
<path d="M302.566 144.885C302.566 176.082 302.566 207.278 302.566 238.474C302.566 246.876 302.032 247.433 294.071 247.433C256.492 247.433 218.914 247.317 181.359 247.549C174.883 247.596 173.095 245.205 173.119 238.868C173.281 175.803 173.304 112.738 173.119 49.6724C173.119 43.1268 175.393 41.1074 181.614 41.1539C219.192 41.3628 256.748 41.3628 294.326 41.1539C300.756 41.1074 302.682 43.6375 302.659 49.9277C302.45 81.5648 302.566 113.225 302.566 144.862V144.885Z" fill="url(#paint5_linear_432_12234)"/>
<path d="M251.897 14.8553H223.881C220.868 14.8553 218.426 17.2975 218.426 20.31V20.3332C218.426 23.3458 220.868 25.7879 223.881 25.7879H251.897C254.909 25.7879 257.351 23.3458 257.351 20.3332V20.31C257.351 17.2975 254.909 14.8553 251.897 14.8553Z" fill="#FCFFE7"/>
<path d="M237.854 254.072H237.831C231.755 254.072 226.829 258.997 226.829 265.074V265.097C226.829 271.173 231.755 276.099 237.831 276.099H237.854C243.93 276.099 248.856 271.173 248.856 265.097V265.074C248.856 258.997 243.93 254.072 237.854 254.072Z" fill="#FCFFE7"/>
<defs>
<linearGradient id="paint0_linear_432_12234" x1="237.854" y1="284.827" x2="237.854" y2="0" gradientUnits="userSpaceOnUse">
<stop stop-color="#C6F4F3"/>
<stop offset="0.05" stop-color="#AED9F0"/>
<stop offset="0.15" stop-color="#82A8EB"/>
<stop offset="0.23" stop-color="#6789E9"/>
<stop offset="0.28" stop-color="#5D7EE8"/>
<stop offset="0.4" stop-color="#4A60BD"/>
<stop offset="0.54" stop-color="#374091"/>
<stop offset="0.67" stop-color="#282970"/>
<stop offset="0.77" stop-color="#201B5D"/>
<stop offset="0.84" stop-color="#1D1656"/>
<stop offset="0.87" stop-color="#1E195A"/>
<stop offset="0.89" stop-color="#242267"/>
<stop offset="0.92" stop-color="#2E327D"/>
<stop offset="0.95" stop-color="#3B489C"/>
<stop offset="0.98" stop-color="#4C63C3"/>
<stop offset="1" stop-color="#5D7EE8"/>
</linearGradient>
<linearGradient id="paint1_linear_432_12234" x1="344.291" y1="127.992" x2="400.255" y2="31.0621" gradientUnits="userSpaceOnUse">
<stop stop-color="#C6F4F3"/>
<stop offset="1" stop-color="#FCFFE7"/>
</linearGradient>
<linearGradient id="paint2_linear_432_12234" x1="118.631" y1="127.992" x2="62.668" y2="31.0621" gradientUnits="userSpaceOnUse">
<stop stop-color="#C6F4F3"/>
<stop offset="1" stop-color="#FCFFE7"/>
</linearGradient>
<linearGradient id="paint3_linear_432_12234" x1="335.216" y1="108.68" x2="369.5" y2="49.306" gradientUnits="userSpaceOnUse">
<stop stop-color="#C6F4F3"/>
<stop offset="1" stop-color="#FCFFE7"/>
</linearGradient>
<linearGradient id="paint4_linear_432_12234" x1="127.706" y1="108.68" x2="93.4229" y2="49.306" gradientUnits="userSpaceOnUse">
<stop stop-color="#C6F4F3"/>
<stop offset="1" stop-color="#FCFFE7"/>
</linearGradient>
<linearGradient id="paint5_linear_432_12234" x1="178.411" y1="247.944" x2="297.834" y2="41.1091" gradientUnits="userSpaceOnUse">
<stop stop-color="#FCFFE7"/>
<stop offset="0.34" stop-color="#F9FEE7"/>
<stop offset="0.57" stop-color="#EFFCE9"/>
<stop offset="0.78" stop-color="#E0F9ED"/>
<stop offset="0.97" stop-color="#CAF4F2"/>
<stop offset="1" stop-color="#C6F4F3"/>
</linearGradient>
</defs>
</svg>
