<svg width="472" height="219" viewBox="0 0 472 219" fill="none" xmlns="http://www.w3.org/2000/svg">
<path d="M161.919 171.944L235.869 215.308L311.093 171.944L235.869 128.505L161.919 171.944Z" stroke="#FCFFE7" stroke-width="4.66704" stroke-miterlimit="10"/>
<path d="M235.72 85.5448V215.308L198.318 193.723V63.9451L235.72 85.5448Z" fill="url(#paint0_linear_171_12690)"/>
<path d="M161.276 171.989L235.226 215.353L310.449 171.989" stroke="#FCFFE7" stroke-width="4.66704" stroke-miterlimit="10"/>
<path d="M235.869 85.5448V215.308L273.256 193.723V63.9451L235.869 85.5448Z" fill="#FCFFE7"/>
<path d="M198.318 63.9456L235.869 42.271L273.256 63.9456L235.869 85.5453L198.318 63.9456Z" fill="url(#paint1_linear_171_12690)"/>
<path d="M242.37 93.4991V105.123L252.541 99.236V87.6123L242.37 93.4991Z" fill="url(#paint2_linear_171_12690)"/>
<path d="M257.439 84.5868V96.2254L267.609 90.3387V78.7001L257.439 84.5868Z" fill="url(#paint3_linear_171_12690)"/>
<path d="M242.37 111.953V123.577L252.541 117.705V106.067L242.37 111.953Z" fill="url(#paint4_linear_171_12690)"/>
<path d="M257.439 103.041V114.679L267.609 108.793V97.1691L257.439 103.041Z" fill="url(#paint5_linear_171_12690)"/>
<path d="M242.416 130.408V142.047L252.586 136.16V124.521L242.416 130.408Z" fill="url(#paint6_linear_171_12690)"/>
<path d="M257.498 121.51V133.134L267.669 127.247V115.624L257.498 121.51Z" fill="url(#paint7_linear_171_12690)"/>
<path d="M242.416 148.862V160.5L252.586 154.614V142.975L242.416 148.862Z" fill="url(#paint8_linear_171_12690)"/>
<path d="M257.498 139.964V151.587L267.669 145.701V134.077L257.498 139.964Z" fill="url(#paint9_linear_171_12690)"/>
<path d="M317.974 171.944L391.909 215.308L467.147 171.944L391.909 128.505L317.974 171.944Z" stroke="#FCFFE7" stroke-width="4.66704" stroke-miterlimit="10"/>
<path d="M393.256 43.784V214.394L355.869 192.795V22.1993L393.256 43.784Z" fill="url(#paint10_linear_171_12690)"/>
<path d="M393.422 43.784V214.394L430.809 192.795V22.1993L393.422 43.784Z" fill="url(#paint11_linear_171_12690)"/>
<path d="M355.869 22.199L393.421 0.509399L430.808 22.199L393.421 43.7837L355.869 22.199Z" fill="url(#paint12_linear_171_12690)"/>
<path d="M399.921 51.7377V63.3763L410.092 57.4896V45.851L399.921 51.7377Z" fill="url(#paint13_linear_171_12690)"/>
<path d="M414.99 42.8403V54.464L425.161 48.5773V36.9536L414.99 42.8403Z" fill="url(#paint14_linear_171_12690)"/>
<path d="M399.921 70.1921V81.8307L410.092 75.944V64.3053L399.921 70.1921Z" fill="url(#paint15_linear_171_12690)"/>
<path d="M414.99 61.2944V72.918L425.161 67.0313V55.4076L414.99 61.2944Z" fill="url(#paint16_linear_171_12690)"/>
<path d="M399.968 88.6458V100.284L410.139 94.3977V82.774L399.968 88.6458Z" fill="url(#paint17_linear_171_12690)"/>
<path d="M415.036 79.7482V91.3719L425.206 85.5001V73.8615L415.036 79.7482Z" fill="url(#paint18_linear_171_12690)"/>
<path d="M399.968 107.115V118.739L410.139 112.852V101.228L399.968 107.115Z" fill="url(#paint19_linear_171_12690)"/>
<path d="M415.036 98.2025V109.841L425.206 103.954V92.3158L415.036 98.2025Z" fill="url(#paint20_linear_171_12690)"/>
<path d="M399.921 125.629V137.268L410.092 131.381V119.742L399.921 125.629Z" fill="url(#paint21_linear_171_12690)"/>
<path d="M414.99 116.732V128.356L425.161 122.469V110.845L414.99 116.732Z" fill="url(#paint22_linear_171_12690)"/>
<path d="M399.921 144.083V155.722L410.092 149.835V138.211L399.921 144.083Z" fill="url(#paint23_linear_171_12690)"/>
<path d="M414.99 135.186V146.809L425.161 140.938V129.299L414.99 135.186Z" fill="url(#paint24_linear_171_12690)"/>
<path d="M399.968 162.552V174.175L410.139 168.289V156.665L399.968 162.552Z" fill="url(#paint25_linear_171_12690)"/>
<path d="M415.036 153.64V165.278L425.206 159.391V147.753L415.036 153.64Z" fill="url(#paint26_linear_171_12690)"/>
<path d="M399.968 181.006V192.63L410.139 186.743V175.12L399.968 181.006Z" fill="url(#paint27_linear_171_12690)"/>
<path d="M415.036 172.093V183.732L425.206 177.845V166.207L415.036 172.093Z" fill="url(#paint28_linear_171_12690)"/>
<path d="M4.64406 171.944L78.5941 215.308L153.832 171.944L78.5941 128.505L4.64406 171.944Z" stroke="#FCFFE7" stroke-width="4.66704" stroke-miterlimit="10"/>
<path d="M78.4431 128.999V214.754L41.0412 193.154V107.414L78.4431 128.999Z" fill="url(#paint29_linear_171_12690)"/>
<path d="M78.5931 128.999V214.754L115.98 193.154V107.414L78.5931 128.999Z" fill="url(#paint30_linear_171_12690)"/>
<path d="M4 171.989L77.95 215.353L153.188 171.989" stroke="#FCFFE7" stroke-width="4.66704" stroke-miterlimit="10"/>
<path d="M41.0412 107.415L78.5929 85.7251L115.98 107.415L78.5929 128.999L41.0412 107.415Z" fill="url(#paint31_linear_171_12690)"/>
<path d="M85.0957 136.953V148.592L95.2663 142.705V131.067L85.0957 136.953Z" fill="url(#paint32_linear_171_12690)"/>
<path d="M100.179 128.056V139.68L110.335 133.793V122.169L100.179 128.056Z" fill="url(#paint33_linear_171_12690)"/>
<path d="M85.0957 155.408V167.046L95.2663 161.16V149.521L85.0957 155.408Z" fill="url(#paint34_linear_171_12690)"/>
<path d="M100.179 146.51V158.134L110.335 152.247V140.623L100.179 146.51Z" fill="url(#paint35_linear_171_12690)"/>
<path d="M318.827 171.303L392.762 214.667L468 171.303" stroke="#FCFFE7" stroke-width="4.66704" stroke-miterlimit="10"/>
<defs>
<linearGradient id="paint0_linear_171_12690" x1="217.011" y1="215.308" x2="217.011" y2="63.9451" gradientUnits="userSpaceOnUse">
<stop stop-color="#C6F4F3"/>
<stop offset="0.05" stop-color="#AED9F0"/>
<stop offset="0.15" stop-color="#82A8EB"/>
<stop offset="0.23" stop-color="#6789E9"/>
<stop offset="0.27" stop-color="#5D7EE8"/>
<stop offset="0.42" stop-color="#4A60BD"/>
<stop offset="0.61" stop-color="#374091"/>
<stop offset="0.77" stop-color="#282970"/>
<stop offset="0.91" stop-color="#201B5D"/>
<stop offset="1" stop-color="#1D1656"/>
</linearGradient>
<linearGradient id="paint1_linear_171_12690" x1="226.418" y1="80.1678" x2="245.202" y2="47.6637" gradientUnits="userSpaceOnUse">
<stop stop-color="#C6F4F3"/>
<stop offset="0.45" stop-color="#90B7ED"/>
<stop offset="0.81" stop-color="#6B8DE9"/>
<stop offset="1" stop-color="#5D7EE8"/>
</linearGradient>
<linearGradient id="paint2_linear_171_12690" x1="249.979" y1="100.734" x2="244.931" y2="92.0012" gradientUnits="userSpaceOnUse">
<stop stop-color="#C6F4F3"/>
<stop offset="0.25" stop-color="#A4CEEF"/>
<stop offset="0.59" stop-color="#7DA2EB"/>
<stop offset="0.85" stop-color="#6588E8"/>
<stop offset="1" stop-color="#5D7EE8"/>
</linearGradient>
<linearGradient id="paint3_linear_171_12690" x1="265.048" y1="91.8366" x2="260" y2="83.104" gradientUnits="userSpaceOnUse">
<stop stop-color="#C6F4F3"/>
<stop offset="0.25" stop-color="#A4CEEF"/>
<stop offset="0.59" stop-color="#7DA2EB"/>
<stop offset="0.85" stop-color="#6588E8"/>
<stop offset="1" stop-color="#5D7EE8"/>
</linearGradient>
<linearGradient id="paint4_linear_171_12690" x1="249.979" y1="119.188" x2="244.931" y2="110.456" gradientUnits="userSpaceOnUse">
<stop stop-color="#C6F4F3"/>
<stop offset="0.25" stop-color="#A4CEEF"/>
<stop offset="0.59" stop-color="#7DA2EB"/>
<stop offset="0.85" stop-color="#6588E8"/>
<stop offset="1" stop-color="#5D7EE8"/>
</linearGradient>
<linearGradient id="paint5_linear_171_12690" x1="265.048" y1="110.291" x2="260" y2="101.558" gradientUnits="userSpaceOnUse">
<stop stop-color="#C6F4F3"/>
<stop offset="0.25" stop-color="#A4CEEF"/>
<stop offset="0.59" stop-color="#7DA2EB"/>
<stop offset="0.85" stop-color="#6588E8"/>
<stop offset="1" stop-color="#5D7EE8"/>
</linearGradient>
<linearGradient id="paint6_linear_171_12690" x1="250.025" y1="137.643" x2="244.992" y2="128.91" gradientUnits="userSpaceOnUse">
<stop stop-color="#C6F4F3"/>
<stop offset="0.25" stop-color="#A4CEEF"/>
<stop offset="0.59" stop-color="#7DA2EB"/>
<stop offset="0.85" stop-color="#6588E8"/>
<stop offset="1" stop-color="#5D7EE8"/>
</linearGradient>
<linearGradient id="paint7_linear_171_12690" x1="265.093" y1="128.745" x2="260.06" y2="120.013" gradientUnits="userSpaceOnUse">
<stop stop-color="#C6F4F3"/>
<stop offset="0.25" stop-color="#A4CEEF"/>
<stop offset="0.59" stop-color="#7DA2EB"/>
<stop offset="0.85" stop-color="#6588E8"/>
<stop offset="1" stop-color="#5D7EE8"/>
</linearGradient>
<linearGradient id="paint8_linear_171_12690" x1="250.025" y1="156.112" x2="244.992" y2="147.379" gradientUnits="userSpaceOnUse">
<stop stop-color="#C6F4F3"/>
<stop offset="0.25" stop-color="#A4CEEF"/>
<stop offset="0.59" stop-color="#7DA2EB"/>
<stop offset="0.85" stop-color="#6588E8"/>
<stop offset="1" stop-color="#5D7EE8"/>
</linearGradient>
<linearGradient id="paint9_linear_171_12690" x1="265.093" y1="147.199" x2="260.06" y2="138.466" gradientUnits="userSpaceOnUse">
<stop stop-color="#C6F4F3"/>
<stop offset="0.25" stop-color="#A4CEEF"/>
<stop offset="0.59" stop-color="#7DA2EB"/>
<stop offset="0.85" stop-color="#6588E8"/>
<stop offset="1" stop-color="#5D7EE8"/>
</linearGradient>
<linearGradient id="paint10_linear_171_12690" x1="374.563" y1="214.394" x2="374.563" y2="22.1993" gradientUnits="userSpaceOnUse">
<stop stop-color="#5D7EE8"/>
<stop offset="0.21" stop-color="#4A60BD"/>
<stop offset="0.46" stop-color="#374091"/>
<stop offset="0.68" stop-color="#282970"/>
<stop offset="0.87" stop-color="#201B5D"/>
<stop offset="1" stop-color="#1D1656"/>
</linearGradient>
<linearGradient id="paint11_linear_171_12690" x1="412.115" y1="214.394" x2="412.115" y2="22.1993" gradientUnits="userSpaceOnUse">
<stop stop-color="#C6F4F3"/>
<stop offset="0.08" stop-color="#BEECF2"/>
<stop offset="0.21" stop-color="#ABD6F0"/>
<stop offset="0.36" stop-color="#8BB2EC"/>
<stop offset="0.54" stop-color="#6081E8"/>
<stop offset="0.55" stop-color="#5D7EE8"/>
<stop offset="0.62" stop-color="#5673D9"/>
<stop offset="0.75" stop-color="#4557B2"/>
<stop offset="0.92" stop-color="#2A2B73"/>
<stop offset="1" stop-color="#1D1656"/>
</linearGradient>
<linearGradient id="paint12_linear_171_12690" x1="383.969" y1="38.4212" x2="402.738" y2="5.9021" gradientUnits="userSpaceOnUse">
<stop stop-color="#C6F4F3"/>
<stop offset="0.45" stop-color="#90B7ED"/>
<stop offset="0.81" stop-color="#6B8DE9"/>
<stop offset="1" stop-color="#5D7EE8"/>
</linearGradient>
<linearGradient id="paint13_linear_171_12690" x1="404.999" y1="63.3763" x2="404.999" y2="45.851" gradientUnits="userSpaceOnUse">
<stop stop-color="#FCFFE7"/>
<stop offset="0.58" stop-color="#DEF8ED"/>
<stop offset="1" stop-color="#C6F4F3"/>
</linearGradient>
<linearGradient id="paint14_linear_171_12690" x1="420.083" y1="54.464" x2="420.083" y2="36.9536" gradientUnits="userSpaceOnUse">
<stop stop-color="#FCFFE7"/>
<stop offset="0.58" stop-color="#DEF8ED"/>
<stop offset="1" stop-color="#C6F4F3"/>
</linearGradient>
<linearGradient id="paint15_linear_171_12690" x1="404.999" y1="81.8307" x2="404.999" y2="64.3053" gradientUnits="userSpaceOnUse">
<stop stop-color="#FCFFE7"/>
<stop offset="0.58" stop-color="#DEF8ED"/>
<stop offset="1" stop-color="#C6F4F3"/>
</linearGradient>
<linearGradient id="paint16_linear_171_12690" x1="420.083" y1="72.918" x2="420.083" y2="55.4076" gradientUnits="userSpaceOnUse">
<stop stop-color="#FCFFE7"/>
<stop offset="0.58" stop-color="#DEF8ED"/>
<stop offset="1" stop-color="#C6F4F3"/>
</linearGradient>
<linearGradient id="paint17_linear_171_12690" x1="405.061" y1="100.284" x2="405.061" y2="82.774" gradientUnits="userSpaceOnUse">
<stop stop-color="#FCFFE7"/>
<stop offset="0.58" stop-color="#DEF8ED"/>
<stop offset="1" stop-color="#C6F4F3"/>
</linearGradient>
<linearGradient id="paint18_linear_171_12690" x1="420.129" y1="91.3719" x2="420.129" y2="73.8615" gradientUnits="userSpaceOnUse">
<stop stop-color="#FCFFE7"/>
<stop offset="0.58" stop-color="#DEF8ED"/>
<stop offset="1" stop-color="#C6F4F3"/>
</linearGradient>
<linearGradient id="paint19_linear_171_12690" x1="405.061" y1="118.739" x2="405.061" y2="101.228" gradientUnits="userSpaceOnUse">
<stop stop-color="#FCFFE7"/>
<stop offset="0.58" stop-color="#DEF8ED"/>
<stop offset="1" stop-color="#C6F4F3"/>
</linearGradient>
<linearGradient id="paint20_linear_171_12690" x1="420.129" y1="109.841" x2="420.129" y2="92.3158" gradientUnits="userSpaceOnUse">
<stop stop-color="#FCFFE7"/>
<stop offset="0.58" stop-color="#DEF8ED"/>
<stop offset="1" stop-color="#C6F4F3"/>
</linearGradient>
<linearGradient id="paint21_linear_171_12690" x1="404.999" y1="137.268" x2="404.999" y2="119.742" gradientUnits="userSpaceOnUse">
<stop stop-color="#FCFFE7"/>
<stop offset="0.58" stop-color="#DEF8ED"/>
<stop offset="1" stop-color="#C6F4F3"/>
</linearGradient>
<linearGradient id="paint22_linear_171_12690" x1="420.083" y1="128.356" x2="420.083" y2="110.845" gradientUnits="userSpaceOnUse">
<stop stop-color="#FCFFE7"/>
<stop offset="0.58" stop-color="#DEF8ED"/>
<stop offset="1" stop-color="#C6F4F3"/>
</linearGradient>
<linearGradient id="paint23_linear_171_12690" x1="404.999" y1="155.722" x2="404.999" y2="138.211" gradientUnits="userSpaceOnUse">
<stop stop-color="#FCFFE7"/>
<stop offset="0.58" stop-color="#DEF8ED"/>
<stop offset="1" stop-color="#C6F4F3"/>
</linearGradient>
<linearGradient id="paint24_linear_171_12690" x1="420.083" y1="146.809" x2="420.083" y2="129.299" gradientUnits="userSpaceOnUse">
<stop stop-color="#FCFFE7"/>
<stop offset="0.58" stop-color="#DEF8ED"/>
<stop offset="1" stop-color="#C6F4F3"/>
</linearGradient>
<linearGradient id="paint25_linear_171_12690" x1="405.061" y1="174.175" x2="405.061" y2="156.665" gradientUnits="userSpaceOnUse">
<stop stop-color="#FCFFE7"/>
<stop offset="0.58" stop-color="#DEF8ED"/>
<stop offset="1" stop-color="#C6F4F3"/>
</linearGradient>
<linearGradient id="paint26_linear_171_12690" x1="420.129" y1="165.278" x2="420.129" y2="147.753" gradientUnits="userSpaceOnUse">
<stop stop-color="#FCFFE7"/>
<stop offset="0.58" stop-color="#DEF8ED"/>
<stop offset="1" stop-color="#C6F4F3"/>
</linearGradient>
<linearGradient id="paint27_linear_171_12690" x1="405.061" y1="192.63" x2="405.061" y2="175.12" gradientUnits="userSpaceOnUse">
<stop stop-color="#FCFFE7"/>
<stop offset="0.58" stop-color="#DEF8ED"/>
<stop offset="1" stop-color="#C6F4F3"/>
</linearGradient>
<linearGradient id="paint28_linear_171_12690" x1="420.129" y1="183.732" x2="420.129" y2="166.207" gradientUnits="userSpaceOnUse">
<stop stop-color="#FCFFE7"/>
<stop offset="0.58" stop-color="#DEF8ED"/>
<stop offset="1" stop-color="#C6F4F3"/>
</linearGradient>
<linearGradient id="paint29_linear_171_12690" x1="59.7497" y1="214.754" x2="59.7497" y2="107.414" gradientUnits="userSpaceOnUse">
<stop stop-color="#C6F4F3"/>
<stop offset="0.03" stop-color="#B0DBF0"/>
<stop offset="0.09" stop-color="#92B9ED"/>
<stop offset="0.15" stop-color="#7A9FEB"/>
<stop offset="0.2" stop-color="#6A8CE9"/>
<stop offset="0.26" stop-color="#6081E8"/>
<stop offset="0.33" stop-color="#5D7EE8"/>
<stop offset="0.45" stop-color="#4E67C7"/>
<stop offset="0.71" stop-color="#343B8A"/>
<stop offset="0.9" stop-color="#232064"/>
<stop offset="1" stop-color="#1D1656"/>
</linearGradient>
<linearGradient id="paint30_linear_171_12690" x1="97.2866" y1="214.754" x2="97.2866" y2="107.414" gradientUnits="userSpaceOnUse">
<stop stop-color="#C6F4F3"/>
<stop offset="0.18" stop-color="#A4CEEF"/>
<stop offset="0.41" stop-color="#7DA2EB"/>
<stop offset="0.59" stop-color="#6587E8"/>
<stop offset="0.7" stop-color="#5D7EE8"/>
</linearGradient>
<linearGradient id="paint31_linear_171_12690" x1="69.1413" y1="123.637" x2="87.9251" y2="91.1178" gradientUnits="userSpaceOnUse">
<stop stop-color="#C6F4F3"/>
<stop offset="0.18" stop-color="#C2EFF2"/>
<stop offset="0.37" stop-color="#B7E3F1"/>
<stop offset="0.55" stop-color="#A5CFEF"/>
<stop offset="0.74" stop-color="#8CB3EC"/>
<stop offset="0.92" stop-color="#6C8EE9"/>
<stop offset="1" stop-color="#5D7EE8"/>
</linearGradient>
<linearGradient id="paint32_linear_171_12690" x1="90.1885" y1="148.592" x2="90.1885" y2="131.067" gradientUnits="userSpaceOnUse">
<stop stop-color="#FCFFE7"/>
<stop offset="0.58" stop-color="#DEF8ED"/>
<stop offset="1" stop-color="#C6F4F3"/>
</linearGradient>
<linearGradient id="paint33_linear_171_12690" x1="105.257" y1="139.68" x2="105.257" y2="122.169" gradientUnits="userSpaceOnUse">
<stop stop-color="#FCFFE7"/>
<stop offset="0.58" stop-color="#DEF8ED"/>
<stop offset="1" stop-color="#C6F4F3"/>
</linearGradient>
<linearGradient id="paint34_linear_171_12690" x1="90.1885" y1="167.046" x2="90.1885" y2="149.521" gradientUnits="userSpaceOnUse">
<stop stop-color="#FCFFE7"/>
<stop offset="0.58" stop-color="#DEF8ED"/>
<stop offset="1" stop-color="#C6F4F3"/>
</linearGradient>
<linearGradient id="paint35_linear_171_12690" x1="105.257" y1="158.134" x2="105.257" y2="140.623" gradientUnits="userSpaceOnUse">
<stop stop-color="#FCFFE7"/>
<stop offset="0.58" stop-color="#DEF8ED"/>
<stop offset="1" stop-color="#C6F4F3"/>
</linearGradient>
</defs>
</svg>
