<svg width="489" height="300" viewBox="0 0 489 300" fill="none" xmlns="http://www.w3.org/2000/svg">
<path d="M246.053 297.846L485.966 161.441L244.459 24.8193L3.36304 161.707L246.053 297.846Z" stroke="#FCFFE7" stroke-width="3" stroke-miterlimit="10"/>
<path d="M140.857 27.8371L151.941 21.1576C165.443 13.0201 183.005 17.3771 191.141 30.8828L267.925 158.35L207.939 194.501L131.155 67.0344C123.02 53.5287 127.376 35.9622 140.878 27.8246L140.857 27.8371Z" fill="url(#paint0_linear_461_12241)"/>
<path d="M150.688 0.0681519L120.705 18.1377L131.943 36.7934L161.926 18.7239L150.688 0.0681519Z" fill="url(#paint1_linear_461_12241)"/>
<path d="M3.36301 161.707C4.32865 160.114 24.7761 127.129 64.1259 127.201C103.065 127.274 123.368 159.558 124.43 161.321C136.79 139.83 159.773 126.574 184.541 126.598C209.382 126.646 232.389 140.072 244.652 161.683C256.916 140.048 279.922 126.622 304.763 126.598C329.532 126.549 352.514 139.83 364.875 161.321C365.913 159.558 385.925 127.153 424.696 126.767C464.432 126.381 485.121 160.017 485.942 161.417L246.004 297.822L3.33887 161.683L3.36301 161.707Z" fill="url(#paint2_linear_461_12241)"/>
<path d="M209.334 214.685C210.831 214.975 212.376 215.12 214.017 215.361C208.392 227.797 208.658 240.208 212.303 252.764C212.979 255.107 213.8 257.425 214.548 259.743L216.48 263.027C218.894 264.089 220.632 263.22 222.322 261.385C231.568 251.412 237.7 239.677 241.297 226.662C243.373 219.201 245.642 211.691 244.218 203.747C244.145 203.336 244.435 202.587 244.773 202.394C248.684 200.028 252.619 197.758 256.868 195.247C257.857 198.7 258.751 201.718 259.62 204.761C260.465 207.682 262.492 209.18 264.955 208.624C267.538 208.045 268.89 205.63 268.069 202.684C267.128 199.255 265.969 195.875 265.003 192.446C264.834 191.818 264.858 190.683 265.22 190.466C268.89 188.172 272.68 186.023 276.591 183.729C277.218 185.057 277.798 186.095 278.184 187.206C279.488 191.021 280.719 194.885 281.998 198.724C282.892 201.453 285.016 202.805 287.382 202.177C289.917 201.501 291.1 199.231 290.399 196.382C290.255 195.778 290.086 195.15 289.868 194.547C288.13 189.476 286.368 184.381 284.606 179.262L296.435 172.332C297.376 174.215 298.366 175.857 299.042 177.62C301.118 182.932 303.098 188.268 305.077 193.629C306.067 196.309 308.143 197.613 310.533 196.937C313.068 196.213 314.299 193.919 313.406 191.094C312.271 187.472 311.088 183.85 309.664 180.324C307.974 176.074 306.019 171.945 304.184 167.744L315.53 161.103C316.11 162.069 316.665 162.866 317.051 163.711C320.745 171.945 324.438 180.203 328.108 188.462C329.315 191.166 331.584 192.301 333.998 191.311C336.243 190.393 337.281 187.834 336.219 185.323C333.66 179.189 331.053 173.056 328.349 166.971C326.78 163.446 324.969 160.041 323.28 156.588L334.988 149.73C335.519 150.624 336.002 151.324 336.364 152.121C340.878 161.731 345.393 171.342 349.859 180.976C351.307 184.091 353.359 185.371 355.894 184.429C358.381 183.536 359.346 180.976 357.994 177.886C354.446 169.748 350.752 161.683 347.034 153.618C345.706 150.769 344.161 148.016 342.713 145.191L351.138 140.265C351.645 141.038 352.08 141.665 352.49 142.317C358.718 152.266 364.947 162.214 371.103 172.187C372.455 174.384 374.193 175.495 376.752 175.278L378.804 174.07C380.421 171.607 379.842 169.482 378.273 167.092C371.972 157.288 365.888 147.34 359.732 137.464C359.419 136.933 359.201 136.353 358.912 135.677L371.103 128.53C373.42 131.983 375.472 135.46 377.959 138.623C383.342 145.577 388.895 152.387 394.495 159.172C396.282 161.345 399.01 161.466 400.82 159.799C402.703 158.085 402.776 155.743 400.989 153.449C400.651 153.014 400.265 152.604 399.903 152.193C394.978 146.084 389.981 140.047 385.201 133.842C382.859 130.799 380.904 127.443 378.731 124.159L389.015 118.122C389.522 118.847 389.909 119.426 390.295 120.03C395.92 128.602 402.172 136.667 409.294 144.032C411.925 146.736 413.784 146.64 416.174 143.718C423.561 134.615 429.693 124.763 434.449 114.066C439.06 103.658 442.657 92.9374 444.347 81.6609L443.14 79.6083C421.099 72.2918 398.624 70.1187 375.641 74.0546C371.634 74.7548 370.523 76.2761 371.875 80.1396C374.096 86.4902 376.462 92.8167 378.997 99.0465C380.566 102.91 382.57 106.58 384.405 110.42L374.145 116.432C372.189 112.569 370.113 108.923 368.496 105.083C365.406 97.7909 362.581 90.3778 359.66 83.0131C358.574 80.2845 356.836 79.1013 354.47 79.5601C351.669 80.0913 350.39 82.7233 351.428 85.8865C355.242 97.3562 359.853 108.464 365.768 119.016C366.564 120.465 366.419 121.189 364.971 121.986C362.05 123.58 359.153 125.246 356.353 127.032C354.759 128.071 353.963 127.854 353.07 126.187C347.662 116.215 342.085 106.339 336.798 96.3179C335.471 93.8067 334.046 91.9956 331.125 91.7058L328.253 93.396C327.19 95.7382 327.601 97.8632 328.856 100.109C334.457 110.154 339.937 120.247 345.465 130.341C345.827 131.017 346.189 131.717 346.6 132.514L338.15 137.464C335.929 134.059 333.926 130.727 331.656 127.588C326.78 120.851 321.807 114.186 316.737 107.57C314.637 104.842 311.161 104.938 309.519 107.522C308.071 109.792 308.988 111.699 310.436 113.607C315.12 119.812 319.827 125.994 324.293 132.32C326.466 135.387 328.156 138.792 330.111 142.124L318.717 148.813C318.379 148.33 318.162 147.992 317.944 147.678C312.126 139.782 306.333 131.838 300.418 123.99C298.245 121.092 295.735 120.658 293.538 122.469C291.365 124.256 291.486 126.598 293.731 129.544C298.487 135.774 303.218 142.052 307.878 148.354C309.036 149.923 309.881 151.686 310.895 153.449L299.549 160.089C299.042 159.365 298.68 158.761 298.221 158.206C293.441 152.314 288.71 146.35 283.809 140.555C281.854 138.261 279.174 138.188 277.315 139.927C275.384 141.738 275.529 144.297 277.629 146.664C280.526 149.924 283.423 153.159 286.175 156.564C288.227 159.099 289.989 161.876 291.944 164.605L280.164 171.487C275.915 166.802 271.883 162.238 267.707 157.82C265.872 155.864 263.241 155.912 261.527 157.554C259.692 159.317 259.668 161.852 261.527 163.929C262.637 165.16 263.893 166.271 265.003 167.502C267.441 170.279 269.807 173.129 272.414 176.195C268.31 178.61 264.665 180.807 260.923 182.836C260.489 183.053 259.378 182.546 258.895 182.063C256.361 179.552 253.971 176.92 251.484 174.36C251.001 173.853 250.398 173.394 249.77 173.08C247.887 172.138 245.714 172.718 244.459 174.384C243.156 176.123 243.276 178.344 244.845 180.01C247.284 182.57 249.77 185.057 252.474 187.834C248.732 190.031 245.328 191.89 242.093 193.967C240.403 195.054 239.221 195.319 237.579 193.774C236.275 192.567 234.585 191.673 232.92 190.997C215.08 183.753 196.781 181.194 177.758 185.564C175.223 186.144 173.823 187.375 173.654 189.983L175.585 193.267C176.092 193.75 176.623 194.209 177.082 194.716C185.7 204.809 196.008 212.198 209.334 214.733V214.685ZM393.578 96.7766C391.309 92.8165 392.588 87.8666 396.451 85.5968C400.289 83.327 405.383 84.6549 407.652 88.4943C409.946 92.406 408.521 97.6217 404.562 99.8191C400.724 101.92 395.751 100.543 393.602 96.7766H393.578Z" fill="url(#paint3_linear_461_12241)"/>
<path d="M2.85608 161.707L245.521 297.847L485.435 161.442" stroke="#FCFFE7" stroke-width="3" stroke-miterlimit="10"/>
<defs>
<linearGradient id="paint0_linear_461_12241" x1="160.037" y1="166.7" x2="228.452" y2="48.2017" gradientUnits="userSpaceOnUse">
<stop stop-color="#FCFFE7"/>
<stop offset="0.58" stop-color="#DEF8ED"/>
<stop offset="1" stop-color="#C6F4F3"/>
</linearGradient>
<linearGradient id="paint1_linear_461_12241" x1="131.211" y1="36.274" x2="151.811" y2="0.613567" gradientUnits="userSpaceOnUse">
<stop stop-color="#C6F4F3"/>
<stop offset="0.45" stop-color="#90B7ED"/>
<stop offset="0.81" stop-color="#6B8DE9"/>
<stop offset="1" stop-color="#5D7EE8"/>
</linearGradient>
<linearGradient id="paint2_linear_461_12241" x1="244.676" y1="126.622" x2="244.676" y2="297.846" gradientUnits="userSpaceOnUse">
<stop stop-color="#5D7EE8"/>
<stop offset="0.08" stop-color="#546FD3"/>
<stop offset="0.3" stop-color="#404FA7"/>
<stop offset="0.5" stop-color="#313683"/>
<stop offset="0.69" stop-color="#26246A"/>
<stop offset="0.86" stop-color="#1F195B"/>
<stop offset="1" stop-color="#1D1656"/>
</linearGradient>
<linearGradient id="paint3_linear_461_12241" x1="234.151" y1="273.265" x2="370.354" y2="37.4277" gradientUnits="userSpaceOnUse">
<stop stop-color="#FCFFE7"/>
<stop offset="0.58" stop-color="#DEF8ED"/>
<stop offset="1" stop-color="#C6F4F3"/>
</linearGradient>
</defs>
</svg>
