<svg width="490" height="322" viewBox="0 0 490 322" fill="none" xmlns="http://www.w3.org/2000/svg">
<path d="M246.139 319.026L486.293 182.187L244.57 45.1543L3.23206 182.477L246.139 319.026Z" stroke="#FCFFE7" stroke-width="3" stroke-miterlimit="10"/>
<path d="M303.739 215.365V284.642L243.483 319.558V180.569L303.739 215.365Z" fill="url(#paint0_linear_461_12242)"/>
<path d="M303.981 215.365L303.739 284.642L364.237 249.387V180.569L303.981 215.365Z" fill="url(#paint1_linear_461_12242)"/>
<path d="M243.483 180.569L303.981 145.629L364.237 180.569L303.981 215.365L243.483 180.569Z" fill="url(#paint2_linear_461_12242)"/>
<path d="M182.72 145.17L183.638 284.979L123.382 250.184L122.464 110.375L182.72 145.17Z" fill="url(#paint3_linear_461_12242)"/>
<path d="M182.962 145.17V284.231L243.218 319.558V110.375L182.962 145.17Z" fill="url(#paint4_linear_461_12242)"/>
<path d="M122.464 110.375L182.962 75.4102L243.218 110.375L182.962 145.17L122.464 110.375Z" fill="url(#paint5_linear_461_12242)"/>
<path d="M1.92847 181.173L244.594 319.316L484.531 180.883" stroke="#FCFFE7" stroke-width="3" stroke-miterlimit="10"/>
<path d="M183.565 113.441C209.418 113.441 230.375 92.479 230.375 66.6208C230.375 40.7625 209.418 19.8003 183.565 19.8003C157.713 19.8003 136.756 40.7625 136.756 66.6208C136.756 92.479 157.713 113.441 183.565 113.441Z" fill="url(#paint6_linear_461_12242)"/>
<path d="M303.739 182.09C329.591 182.09 350.549 161.128 350.549 135.27C350.549 109.411 329.591 88.4492 303.739 88.4492C277.887 88.4492 256.93 109.411 256.93 135.27C256.93 161.128 277.887 182.09 303.739 182.09Z" fill="url(#paint7_linear_461_12242)"/>
<path d="M133.666 49.1869C133.666 22.0218 155.682 0 182.841 0C210 0 232.016 22.0218 232.016 49.1869" fill="url(#paint8_linear_461_12242)"/>
<path d="M254.564 124.597C254.564 97.432 276.581 75.4102 303.739 75.4102C330.898 75.4102 352.915 97.432 352.915 124.597" fill="url(#paint9_linear_461_12242)"/>
<defs>
<linearGradient id="paint0_linear_461_12242" x1="273.611" y1="319.558" x2="273.611" y2="180.569" gradientUnits="userSpaceOnUse">
<stop stop-color="#C6F4F3"/>
<stop offset="0.68" stop-color="#5D7EE8"/>
<stop offset="0.73" stop-color="#5673D9"/>
<stop offset="0.82" stop-color="#4557B2"/>
<stop offset="0.95" stop-color="#2A2B73"/>
<stop offset="1" stop-color="#1D1656"/>
</linearGradient>
<linearGradient id="paint1_linear_461_12242" x1="333.988" y1="284.642" x2="333.988" y2="180.569" gradientUnits="userSpaceOnUse">
<stop stop-color="#C6F4F3"/>
<stop offset="0.68" stop-color="#5D7EE8"/>
<stop offset="0.73" stop-color="#5673D9"/>
<stop offset="0.82" stop-color="#4557B2"/>
<stop offset="0.95" stop-color="#2A2B73"/>
<stop offset="1" stop-color="#1D1656"/>
</linearGradient>
<linearGradient id="paint2_linear_461_12242" x1="303.86" y1="215.365" x2="303.86" y2="145.629" gradientUnits="userSpaceOnUse">
<stop stop-color="#C6F4F3"/>
<stop offset="0.08" stop-color="#AED9F0"/>
<stop offset="0.26" stop-color="#82A8EB"/>
<stop offset="0.4" stop-color="#6789E9"/>
<stop offset="0.47" stop-color="#5D7EE8"/>
<stop offset="0.58" stop-color="#4A60BD"/>
<stop offset="0.71" stop-color="#374091"/>
<stop offset="0.83" stop-color="#282970"/>
<stop offset="0.93" stop-color="#201B5D"/>
<stop offset="1" stop-color="#1D1656"/>
</linearGradient>
<linearGradient id="paint3_linear_461_12242" x1="153.051" y1="284.979" x2="153.051" y2="110.375" gradientUnits="userSpaceOnUse">
<stop stop-color="#C6F4F3"/>
<stop offset="0.68" stop-color="#5D7EE8"/>
<stop offset="0.73" stop-color="#5673D9"/>
<stop offset="0.82" stop-color="#4557B2"/>
<stop offset="0.95" stop-color="#2A2B73"/>
<stop offset="1" stop-color="#1D1656"/>
</linearGradient>
<linearGradient id="paint4_linear_461_12242" x1="213.09" y1="319.558" x2="213.09" y2="110.375" gradientUnits="userSpaceOnUse">
<stop stop-color="#C6F4F3"/>
<stop offset="0.68" stop-color="#5D7EE8"/>
<stop offset="0.73" stop-color="#5673D9"/>
<stop offset="0.82" stop-color="#4557B2"/>
<stop offset="0.95" stop-color="#2A2B73"/>
<stop offset="1" stop-color="#1D1656"/>
</linearGradient>
<linearGradient id="paint5_linear_461_12242" x1="182.841" y1="145.17" x2="182.841" y2="75.4102" gradientUnits="userSpaceOnUse">
<stop stop-color="#C6F4F3"/>
<stop offset="0.08" stop-color="#AED9F0"/>
<stop offset="0.26" stop-color="#82A8EB"/>
<stop offset="0.4" stop-color="#6789E9"/>
<stop offset="0.47" stop-color="#5D7EE8"/>
<stop offset="0.58" stop-color="#4A60BD"/>
<stop offset="0.71" stop-color="#374091"/>
<stop offset="0.83" stop-color="#282970"/>
<stop offset="0.93" stop-color="#201B5D"/>
<stop offset="1" stop-color="#1D1656"/>
</linearGradient>
<linearGradient id="paint6_linear_461_12242" x1="183.565" y1="113.441" x2="183.565" y2="19.8003" gradientUnits="userSpaceOnUse">
<stop stop-color="#FCFFE7"/>
<stop offset="0.07" stop-color="#F0FCE9"/>
<stop offset="0.2" stop-color="#D0F6F0"/>
<stop offset="0.24" stop-color="#C6F4F3"/>
<stop offset="0.37" stop-color="#BBE8F1"/>
<stop offset="0.59" stop-color="#9EC8EE"/>
<stop offset="0.88" stop-color="#7194EA"/>
<stop offset="1" stop-color="#5D7EE8"/>
</linearGradient>
<linearGradient id="paint7_linear_461_12242" x1="303.739" y1="182.09" x2="303.739" y2="88.4492" gradientUnits="userSpaceOnUse">
<stop stop-color="#FCFFE7"/>
<stop offset="0.07" stop-color="#F0FCE9"/>
<stop offset="0.2" stop-color="#D0F6F0"/>
<stop offset="0.24" stop-color="#C6F4F3"/>
<stop offset="0.37" stop-color="#BBE8F1"/>
<stop offset="0.59" stop-color="#9EC8EE"/>
<stop offset="0.88" stop-color="#7194EA"/>
<stop offset="1" stop-color="#5D7EE8"/>
</linearGradient>
<linearGradient id="paint8_linear_461_12242" x1="182.841" y1="0" x2="182.841" y2="49.1869" gradientUnits="userSpaceOnUse">
<stop stop-color="#5D7EE8"/>
<stop offset="0.21" stop-color="#4A60BD"/>
<stop offset="0.46" stop-color="#374091"/>
<stop offset="0.68" stop-color="#282970"/>
<stop offset="0.87" stop-color="#201B5D"/>
<stop offset="1" stop-color="#1D1656"/>
</linearGradient>
<linearGradient id="paint9_linear_461_12242" x1="303.739" y1="75.4102" x2="303.739" y2="124.597" gradientUnits="userSpaceOnUse">
<stop stop-color="#5D7EE8"/>
<stop offset="0.21" stop-color="#4A60BD"/>
<stop offset="0.46" stop-color="#374091"/>
<stop offset="0.68" stop-color="#282970"/>
<stop offset="0.87" stop-color="#201B5D"/>
<stop offset="1" stop-color="#1D1656"/>
</linearGradient>
</defs>
</svg>
