<svg width="489" height="334" viewBox="0 0 489 334" fill="none" xmlns="http://www.w3.org/2000/svg">
<path d="M246.053 331.633L485.966 193.224L244.459 54.6221L3.36304 193.514L246.053 331.633Z" stroke="#FCFFE7" stroke-width="3" stroke-miterlimit="10"/>
<path d="M3.36304 193.345L246.053 331.464L485.966 193.055" stroke="#FCFFE7" stroke-width="3" stroke-miterlimit="10"/>
<path d="M368.882 116.124C368.809 114.892 367.168 113.033 365.888 112.646C361.857 111.463 357.705 110.691 353.528 110.063C350.511 109.604 348.966 108.348 348.362 105.209C347.348 99.9935 345.948 94.8262 344.33 89.7554C343.582 87.3407 343.872 85.8919 345.779 84.2982C349.859 80.8694 353.77 77.2474 358.405 73.1183C354.59 66.7194 351.042 60.5136 347.203 54.5011C346.648 53.6318 344.596 53.0523 343.534 53.3421C338.947 54.6219 334.481 56.433 329.894 57.6645C328.615 58.0267 326.539 57.6161 325.573 56.7227C321.155 52.6419 316.882 48.3438 312.802 43.9008C311.909 42.9108 311.378 40.9307 311.692 39.651C312.802 35.3045 314.251 31.0306 315.844 26.8291C316.786 24.3178 316.568 22.6999 314.009 21.3477C308.819 18.5467 303.725 15.5767 298.68 12.5342C296.724 11.351 295.445 11.6891 294.021 13.4035C291.244 16.7357 288.13 19.8507 285.402 23.2312C283.64 25.4044 282.023 25.8873 279.27 24.9697C274.08 23.2311 268.769 21.903 263.434 20.7199C260.972 20.1886 259.909 19.102 259.523 16.6391C258.823 12.2202 257.954 7.77731 256.771 3.45504C256.433 2.24771 254.743 0.629872 253.633 0.581578C247.332 0.291818 241.007 0.291818 234.706 0.581578C233.62 0.629872 231.978 2.27185 231.664 3.45504C230.457 7.77731 229.637 12.2202 228.84 16.6391C228.405 19.0296 227.367 20.1887 224.857 20.744C219.522 21.9031 214.21 23.2553 209.02 24.9939C206.268 25.9115 204.627 25.4044 202.888 23.2312C200.257 19.9473 197.215 16.9772 194.608 13.6691C192.966 11.5924 191.494 11.4234 189.273 12.7515C184.469 15.6732 179.641 18.5226 174.643 21.1305C171.746 22.6517 171.481 24.4385 172.591 27.2395C174.136 31.1513 175.561 35.1597 176.502 39.2405C176.864 40.7376 176.188 43.0315 175.126 44.1905C171.288 48.4645 167.184 52.5212 162.935 56.4088C161.873 57.3988 159.7 57.9783 158.324 57.6403C153.713 56.433 149.271 54.5977 144.684 53.3179C143.622 53.0282 141.57 53.6802 141.015 54.5494C137.635 59.8859 134.618 65.4396 131.359 70.8485C130.127 72.9009 130.803 74.0842 132.421 75.4364C135.752 78.2374 138.818 81.3765 142.246 84.0326C144.54 85.8436 144.684 87.558 143.839 90.19C142.222 95.2608 140.798 100.428 139.784 105.644C139.253 108.373 137.925 109.387 135.463 109.845C131.045 110.666 126.603 111.439 122.282 112.622C121.123 112.936 119.602 114.651 119.554 115.785C119.288 121.943 119.529 128.125 119.361 134.306C119.288 136.89 120.495 137.638 122.764 138.025C127.327 138.846 131.89 139.715 136.356 140.946C137.611 141.309 139.084 142.806 139.47 144.086C141.184 149.712 142.705 155.41 143.936 161.157C144.25 162.558 143.646 164.731 142.681 165.721C139.446 169.029 135.897 172.047 132.324 175.017C130.634 176.442 130.248 177.698 131.431 179.654C134.593 184.942 137.708 190.302 140.725 195.687C141.884 197.74 143.188 197.836 145.24 197.088C149.319 195.566 153.544 194.431 157.6 192.862C160.038 191.92 161.631 192.258 163.442 194.262C167.111 198.319 170.998 202.182 175.03 205.877C177.009 207.688 177.42 209.282 176.454 211.745C174.909 215.801 173.847 220.051 172.302 224.108C171.433 226.426 171.94 227.73 174.04 228.889C179.327 231.811 184.565 234.805 189.732 237.92C191.759 239.127 192.991 238.62 194.367 236.954C197.264 233.501 200.136 230.024 203.347 226.909C204.458 225.822 206.751 225.098 208.248 225.436C214.017 226.643 219.715 228.189 225.315 229.975C226.691 230.41 228.188 232.124 228.599 233.525C229.83 237.968 230.409 242.604 231.64 247.071C231.954 248.23 233.668 249.8 234.779 249.848C240.935 250.114 247.115 249.896 253.295 250.017C255.636 250.065 256.506 248.955 256.892 246.878C257.737 242.314 258.509 237.726 259.74 233.283C260.127 231.907 261.744 230.362 263.144 229.903C268.6 228.164 274.177 226.643 279.802 225.46C281.347 225.122 283.664 225.701 284.751 226.764C288.01 229.855 290.882 233.332 293.779 236.785C295.252 238.572 296.531 239.151 298.728 237.799C303.749 234.732 308.892 231.81 314.058 228.985C316.351 227.73 316.834 226.281 315.917 223.866C314.347 219.665 312.875 215.391 311.764 211.044C311.426 209.668 311.909 207.495 312.851 206.432C316.81 202.086 320.986 197.884 325.332 193.924C326.394 192.958 328.591 192.403 329.967 192.765C334.457 193.924 338.85 195.446 343.172 197.088C345.32 197.909 346.503 197.498 347.614 195.542C350.486 190.399 353.432 185.28 356.522 180.281C357.97 177.915 357.729 176.37 355.532 174.607C352.031 171.782 348.652 168.812 345.465 165.624C344.548 164.683 343.944 162.654 344.234 161.374C345.513 155.628 347.348 150.001 348.603 144.255C349.11 141.912 350.173 140.995 352.369 140.608C356.787 139.812 361.157 138.749 365.599 137.976C367.868 137.59 369.075 136.697 369.027 134.161C368.906 128.125 369.147 122.064 368.834 116.027L368.882 116.124ZM243.711 206.094C199.147 205.756 163.128 169.343 163.37 124.913C163.611 80.1933 200.136 44.118 244.845 44.432C289.072 44.7217 325.235 81.2799 324.945 125.42C324.68 170.309 288.275 206.481 243.711 206.118V206.094Z" fill="url(#paint0_linear_461_12238)"/>
<path d="M324.945 125.396C324.68 170.285 288.275 206.433 243.711 206.095C199.147 205.756 163.128 169.343 163.37 124.889C163.611 80.1694 200.136 44.0943 244.845 44.3841C289.072 44.6738 325.235 81.2319 324.969 125.372L324.945 125.396Z" fill="#1D1656"/>
<defs>
<linearGradient id="paint0_linear_461_12238" x1="244.218" y1="250.09" x2="244.218" y2="0.388399" gradientUnits="userSpaceOnUse">
<stop stop-color="#FCFFE7"/>
<stop offset="0.19" stop-color="#E6FAEB"/>
<stop offset="0.44" stop-color="#CEF5F1"/>
<stop offset="0.6" stop-color="#C6F4F3"/>
<stop offset="0.78" stop-color="#90B7ED"/>
<stop offset="0.93" stop-color="#6B8DE9"/>
<stop offset="1" stop-color="#5D7EE8"/>
</linearGradient>
</defs>
</svg>
