<svg width="489" height="350" viewBox="0 0 489 350" fill="none" xmlns="http://www.w3.org/2000/svg">
<path d="M246.053 347.645L485.966 209.236L244.459 70.6094L3.36304 209.525L246.053 347.645Z" stroke="#FCFFE7" stroke-width="3" stroke-miterlimit="10"/>
<path d="M244.218 139.91V347.669L123.102 279.816L123.609 70.2227L244.218 139.91Z" fill="url(#paint0_linear_461_12237)"/>
<path d="M244.725 139.91V347.669L365.357 278.005V70.2227L244.725 139.91Z" fill="#FCFFE7"/>
<path d="M123.609 70.4881L244.725 0.535156L365.357 70.4881L244.725 140.151L123.609 70.4881Z" fill="url(#paint1_linear_461_12237)"/>
<path d="M266.403 165.023V190.087L288.323 177.41V152.322L266.403 165.023Z" fill="url(#paint2_linear_461_12237)"/>
<path d="M298.897 145.802V170.891L320.841 158.19V133.101L298.897 145.802Z" fill="url(#paint3_linear_461_12237)"/>
<path d="M331.174 126.919V152.008L353.118 139.307V114.218L331.174 126.919Z" fill="url(#paint4_linear_461_12237)"/>
<path d="M266.403 204.816V229.905L288.323 217.204V192.115L266.403 204.816Z" fill="url(#paint5_linear_461_12237)"/>
<path d="M298.897 185.62V210.708L320.841 198.007V172.919L298.897 185.62Z" fill="url(#paint6_linear_461_12237)"/>
<path d="M331.174 166.713V191.801L353.118 179.124V154.036L331.174 166.713Z" fill="url(#paint7_linear_461_12237)"/>
<path d="M266.5 244.635V269.723L288.444 257.022V231.934L266.5 244.635Z" fill="url(#paint8_linear_461_12237)"/>
<path d="M299.018 225.414V250.502L320.938 237.825V212.737L299.018 225.414Z" fill="url(#paint9_linear_461_12237)"/>
<path d="M331.294 206.531V231.62L353.214 218.919V193.83L331.294 206.531Z" fill="url(#paint10_linear_461_12237)"/>
<path d="M266.5 284.428V309.517L288.444 296.816V271.751L266.5 284.428Z" fill="url(#paint11_linear_461_12237)"/>
<path d="M299.018 265.232V290.32L320.938 277.619V252.531L299.018 265.232Z" fill="url(#paint12_linear_461_12237)"/>
<path d="M331.294 246.349V271.413L353.214 258.736V233.648L331.294 246.349Z" fill="url(#paint13_linear_461_12237)"/>
<path d="M226.233 165.023V190.087L204.313 177.41V152.322L226.233 165.023Z" fill="url(#paint14_linear_461_12237)"/>
<path d="M193.739 145.802V170.891L171.795 158.19V133.101L193.739 145.802Z" fill="url(#paint15_linear_461_12237)"/>
<path d="M161.462 126.919V152.008L139.518 139.307V114.218L161.462 126.919Z" fill="url(#paint16_linear_461_12237)"/>
<path d="M226.233 204.816V229.905L204.313 217.204V192.115L226.233 204.816Z" fill="url(#paint17_linear_461_12237)"/>
<path d="M193.739 185.62V210.708L171.795 198.007V172.919L193.739 185.62Z" fill="url(#paint18_linear_461_12237)"/>
<path d="M161.462 166.713V191.801L139.518 179.124V154.036L161.462 166.713Z" fill="url(#paint19_linear_461_12237)"/>
<path d="M226.136 244.635V269.723L204.192 257.022V231.934L226.136 244.635Z" fill="url(#paint20_linear_461_12237)"/>
<path d="M193.618 225.414V250.502L171.698 237.825V212.737L193.618 225.414Z" fill="url(#paint21_linear_461_12237)"/>
<path d="M161.342 206.531V231.62L139.422 218.919V193.83L161.342 206.531Z" fill="url(#paint22_linear_461_12237)"/>
<path d="M226.136 284.428V309.517L204.192 296.816V271.751L226.136 284.428Z" fill="url(#paint23_linear_461_12237)"/>
<path d="M193.618 265.232V290.32L171.698 277.619V252.531L193.618 265.232Z" fill="url(#paint24_linear_461_12237)"/>
<path d="M161.342 246.349V271.413L139.422 258.736V233.648L161.342 246.349Z" fill="url(#paint25_linear_461_12237)"/>
<path d="M3.36304 209.332L246.053 347.475L485.966 209.042" stroke="#FCFFE7" stroke-width="3" stroke-miterlimit="10"/>
<defs>
<linearGradient id="paint0_linear_461_12237" x1="183.672" y1="347.669" x2="183.672" y2="70.2227" gradientUnits="userSpaceOnUse">
<stop stop-color="#C6F4F3"/>
<stop offset="0.05" stop-color="#AED9F0"/>
<stop offset="0.15" stop-color="#82A8EB"/>
<stop offset="0.23" stop-color="#6789E9"/>
<stop offset="0.28" stop-color="#5D7EE8"/>
<stop offset="0.43" stop-color="#4A60BD"/>
<stop offset="0.61" stop-color="#374091"/>
<stop offset="0.77" stop-color="#282970"/>
<stop offset="0.91" stop-color="#201B5D"/>
<stop offset="1" stop-color="#1D1656"/>
</linearGradient>
<linearGradient id="paint1_linear_461_12237" x1="214.259" y1="122.838" x2="274.85" y2="17.9332" gradientUnits="userSpaceOnUse">
<stop stop-color="#C6F4F3"/>
<stop offset="0.45" stop-color="#90B7ED"/>
<stop offset="0.81" stop-color="#6B8DE9"/>
<stop offset="1" stop-color="#5D7EE8"/>
</linearGradient>
<linearGradient id="paint2_linear_461_12237" x1="282.795" y1="180.622" x2="271.928" y2="161.79" gradientUnits="userSpaceOnUse">
<stop stop-color="#C6F4F3"/>
<stop offset="0.25" stop-color="#A4CEEF"/>
<stop offset="0.59" stop-color="#7DA2EB"/>
<stop offset="0.85" stop-color="#6588E8"/>
<stop offset="1" stop-color="#5D7EE8"/>
</linearGradient>
<linearGradient id="paint3_linear_461_12237" x1="315.289" y1="161.425" x2="304.421" y2="142.593" gradientUnits="userSpaceOnUse">
<stop stop-color="#C6F4F3"/>
<stop offset="0.25" stop-color="#A4CEEF"/>
<stop offset="0.59" stop-color="#7DA2EB"/>
<stop offset="0.85" stop-color="#6588E8"/>
<stop offset="1" stop-color="#5D7EE8"/>
</linearGradient>
<linearGradient id="paint4_linear_461_12237" x1="347.589" y1="142.542" x2="336.698" y2="123.686" gradientUnits="userSpaceOnUse">
<stop stop-color="#C6F4F3"/>
<stop offset="0.25" stop-color="#A4CEEF"/>
<stop offset="0.59" stop-color="#7DA2EB"/>
<stop offset="0.85" stop-color="#6588E8"/>
<stop offset="1" stop-color="#5D7EE8"/>
</linearGradient>
<linearGradient id="paint5_linear_461_12237" x1="282.795" y1="220.439" x2="271.928" y2="201.607" gradientUnits="userSpaceOnUse">
<stop stop-color="#C6F4F3"/>
<stop offset="0.25" stop-color="#A4CEEF"/>
<stop offset="0.59" stop-color="#7DA2EB"/>
<stop offset="0.85" stop-color="#6588E8"/>
<stop offset="1" stop-color="#5D7EE8"/>
</linearGradient>
<linearGradient id="paint6_linear_461_12237" x1="315.289" y1="201.219" x2="304.422" y2="182.387" gradientUnits="userSpaceOnUse">
<stop stop-color="#C6F4F3"/>
<stop offset="0.25" stop-color="#A4CEEF"/>
<stop offset="0.59" stop-color="#7DA2EB"/>
<stop offset="0.85" stop-color="#6588E8"/>
<stop offset="1" stop-color="#5D7EE8"/>
</linearGradient>
<linearGradient id="paint7_linear_461_12237" x1="347.589" y1="182.336" x2="336.698" y2="163.504" gradientUnits="userSpaceOnUse">
<stop stop-color="#C6F4F3"/>
<stop offset="0.25" stop-color="#A4CEEF"/>
<stop offset="0.59" stop-color="#7DA2EB"/>
<stop offset="0.85" stop-color="#6588E8"/>
<stop offset="1" stop-color="#5D7EE8"/>
</linearGradient>
<linearGradient id="paint8_linear_461_12237" x1="282.916" y1="260.233" x2="272.024" y2="241.401" gradientUnits="userSpaceOnUse">
<stop stop-color="#C6F4F3"/>
<stop offset="0.25" stop-color="#A4CEEF"/>
<stop offset="0.59" stop-color="#7DA2EB"/>
<stop offset="0.85" stop-color="#6588E8"/>
<stop offset="1" stop-color="#5D7EE8"/>
</linearGradient>
<linearGradient id="paint9_linear_461_12237" x1="315.41" y1="241.037" x2="304.542" y2="222.205" gradientUnits="userSpaceOnUse">
<stop stop-color="#C6F4F3"/>
<stop offset="0.25" stop-color="#A4CEEF"/>
<stop offset="0.59" stop-color="#7DA2EB"/>
<stop offset="0.85" stop-color="#6588E8"/>
<stop offset="1" stop-color="#5D7EE8"/>
</linearGradient>
<linearGradient id="paint10_linear_461_12237" x1="347.686" y1="222.154" x2="336.819" y2="203.322" gradientUnits="userSpaceOnUse">
<stop stop-color="#C6F4F3"/>
<stop offset="0.25" stop-color="#A4CEEF"/>
<stop offset="0.59" stop-color="#7DA2EB"/>
<stop offset="0.85" stop-color="#6588E8"/>
<stop offset="1" stop-color="#5D7EE8"/>
</linearGradient>
<linearGradient id="paint11_linear_461_12237" x1="282.916" y1="300.051" x2="272.024" y2="281.219" gradientUnits="userSpaceOnUse">
<stop stop-color="#C6F4F3"/>
<stop offset="0.25" stop-color="#A4CEEF"/>
<stop offset="0.59" stop-color="#7DA2EB"/>
<stop offset="0.85" stop-color="#6588E8"/>
<stop offset="1" stop-color="#5D7EE8"/>
</linearGradient>
<linearGradient id="paint12_linear_461_12237" x1="315.41" y1="280.831" x2="304.542" y2="261.999" gradientUnits="userSpaceOnUse">
<stop stop-color="#C6F4F3"/>
<stop offset="0.25" stop-color="#A4CEEF"/>
<stop offset="0.59" stop-color="#7DA2EB"/>
<stop offset="0.85" stop-color="#6588E8"/>
<stop offset="1" stop-color="#5D7EE8"/>
</linearGradient>
<linearGradient id="paint13_linear_461_12237" x1="347.686" y1="261.948" x2="336.819" y2="243.116" gradientUnits="userSpaceOnUse">
<stop stop-color="#C6F4F3"/>
<stop offset="0.25" stop-color="#A4CEEF"/>
<stop offset="0.59" stop-color="#7DA2EB"/>
<stop offset="0.85" stop-color="#6588E8"/>
<stop offset="1" stop-color="#5D7EE8"/>
</linearGradient>
<linearGradient id="paint14_linear_461_12237" x1="209.841" y1="180.622" x2="220.708" y2="161.79" gradientUnits="userSpaceOnUse">
<stop stop-color="#C6F4F3"/>
<stop offset="0.25" stop-color="#A4CEEF"/>
<stop offset="0.59" stop-color="#7DA2EB"/>
<stop offset="0.85" stop-color="#6588E8"/>
<stop offset="1" stop-color="#5D7EE8"/>
</linearGradient>
<linearGradient id="paint15_linear_461_12237" x1="177.347" y1="161.425" x2="188.214" y2="142.593" gradientUnits="userSpaceOnUse">
<stop stop-color="#C6F4F3"/>
<stop offset="0.25" stop-color="#A4CEEF"/>
<stop offset="0.59" stop-color="#7DA2EB"/>
<stop offset="0.85" stop-color="#6588E8"/>
<stop offset="1" stop-color="#5D7EE8"/>
</linearGradient>
<linearGradient id="paint16_linear_461_12237" x1="145.046" y1="142.542" x2="155.938" y2="123.686" gradientUnits="userSpaceOnUse">
<stop stop-color="#C6F4F3"/>
<stop offset="0.25" stop-color="#A4CEEF"/>
<stop offset="0.59" stop-color="#7DA2EB"/>
<stop offset="0.85" stop-color="#6588E8"/>
<stop offset="1" stop-color="#5D7EE8"/>
</linearGradient>
<linearGradient id="paint17_linear_461_12237" x1="209.841" y1="220.439" x2="220.708" y2="201.607" gradientUnits="userSpaceOnUse">
<stop stop-color="#C6F4F3"/>
<stop offset="0.25" stop-color="#A4CEEF"/>
<stop offset="0.59" stop-color="#7DA2EB"/>
<stop offset="0.85" stop-color="#6588E8"/>
<stop offset="1" stop-color="#5D7EE8"/>
</linearGradient>
<linearGradient id="paint18_linear_461_12237" x1="177.347" y1="201.219" x2="188.214" y2="182.387" gradientUnits="userSpaceOnUse">
<stop stop-color="#C6F4F3"/>
<stop offset="0.25" stop-color="#A4CEEF"/>
<stop offset="0.59" stop-color="#7DA2EB"/>
<stop offset="0.85" stop-color="#6588E8"/>
<stop offset="1" stop-color="#5D7EE8"/>
</linearGradient>
<linearGradient id="paint19_linear_461_12237" x1="145.046" y1="182.336" x2="155.938" y2="163.504" gradientUnits="userSpaceOnUse">
<stop stop-color="#C6F4F3"/>
<stop offset="0.25" stop-color="#A4CEEF"/>
<stop offset="0.59" stop-color="#7DA2EB"/>
<stop offset="0.85" stop-color="#6588E8"/>
<stop offset="1" stop-color="#5D7EE8"/>
</linearGradient>
<linearGradient id="paint20_linear_461_12237" x1="209.72" y1="260.233" x2="220.612" y2="241.401" gradientUnits="userSpaceOnUse">
<stop stop-color="#C6F4F3"/>
<stop offset="0.25" stop-color="#A4CEEF"/>
<stop offset="0.59" stop-color="#7DA2EB"/>
<stop offset="0.85" stop-color="#6588E8"/>
<stop offset="1" stop-color="#5D7EE8"/>
</linearGradient>
<linearGradient id="paint21_linear_461_12237" x1="177.226" y1="241.037" x2="188.094" y2="222.205" gradientUnits="userSpaceOnUse">
<stop stop-color="#C6F4F3"/>
<stop offset="0.25" stop-color="#A4CEEF"/>
<stop offset="0.59" stop-color="#7DA2EB"/>
<stop offset="0.85" stop-color="#6588E8"/>
<stop offset="1" stop-color="#5D7EE8"/>
</linearGradient>
<linearGradient id="paint22_linear_461_12237" x1="144.95" y1="222.154" x2="155.817" y2="203.322" gradientUnits="userSpaceOnUse">
<stop stop-color="#C6F4F3"/>
<stop offset="0.25" stop-color="#A4CEEF"/>
<stop offset="0.59" stop-color="#7DA2EB"/>
<stop offset="0.85" stop-color="#6588E8"/>
<stop offset="1" stop-color="#5D7EE8"/>
</linearGradient>
<linearGradient id="paint23_linear_461_12237" x1="209.72" y1="300.051" x2="220.612" y2="281.219" gradientUnits="userSpaceOnUse">
<stop stop-color="#C6F4F3"/>
<stop offset="0.25" stop-color="#A4CEEF"/>
<stop offset="0.59" stop-color="#7DA2EB"/>
<stop offset="0.85" stop-color="#6588E8"/>
<stop offset="1" stop-color="#5D7EE8"/>
</linearGradient>
<linearGradient id="paint24_linear_461_12237" x1="177.226" y1="280.831" x2="188.094" y2="261.999" gradientUnits="userSpaceOnUse">
<stop stop-color="#C6F4F3"/>
<stop offset="0.25" stop-color="#A4CEEF"/>
<stop offset="0.59" stop-color="#7DA2EB"/>
<stop offset="0.85" stop-color="#6588E8"/>
<stop offset="1" stop-color="#5D7EE8"/>
</linearGradient>
<linearGradient id="paint25_linear_461_12237" x1="144.95" y1="261.948" x2="155.817" y2="243.116" gradientUnits="userSpaceOnUse">
<stop stop-color="#C6F4F3"/>
<stop offset="0.25" stop-color="#A4CEEF"/>
<stop offset="0.59" stop-color="#7DA2EB"/>
<stop offset="0.85" stop-color="#6588E8"/>
<stop offset="1" stop-color="#5D7EE8"/>
</linearGradient>
</defs>
</svg>
