<svg width="132" height="121" viewBox="0 0 132 121" fill="none" xmlns="http://www.w3.org/2000/svg">
<g clip-path="url(#clip0_178_52529)">
<path d="M109.09 103.64C107.26 104.18 105.3 104.53 103.4 104.55C90.75 104.63 78.1 104.59 65.45 104.59V104.57C53.1 104.57 40.74 104.6 28.39 104.54C26.55 104.54 24.66 104.3 22.88 103.84C19.6 102.99 18.57 100.94 19.75 97.7599C20.31 96.24 20.98 94.6799 21.97 93.41C26.19 87.99 27.47 81.6899 27.95 75.0399C28.58 66.2899 29.04 57.4999 30.22 48.8199C30.92 43.7199 32.42 38.6199 34.36 33.8399C37.56 25.9699 43.64 20.8699 51.77 18.3399C60.58 15.6099 69.49 15.4199 78.42 17.6899C89.38 20.4599 95.98 27.7099 99.31 38.2799C101.72 45.9399 102.37 53.8699 102.96 61.8099C103.45 68.3399 104.04 74.8599 104.59 81.3699C104.88 84.7999 106.26 87.7899 108.09 90.6699C109.52 92.9199 110.95 95.2199 111.98 97.6699C113.3 100.8 112.33 102.69 109.08 103.64H109.09Z" fill="#2342CA"/>
<path d="M82.23 106.59C81.27 114.82 73.86 120.82 65.18 120.61C57.34 120.43 50.13 114 49.63 106.59H82.23Z" fill="#2342CA"/>
<path d="M77.67 14.6999H54.13C54.13 12.2599 53.95 9.65994 54.17 7.08994C54.5 3.26994 57.7 0.329942 61.65 0.119942C64.46 -0.0300577 67.3 -0.0400577 70.12 0.119942C74.17 0.339942 77.27 3.28994 77.63 7.32994C77.85 9.81994 77.67 12.3499 77.67 14.7099V14.6999Z" fill="#2342CA"/>
<path d="M0 29.2599C0.22 39.1099 3.49 47.7399 10.18 55.0199C11.47 56.4199 12.93 57.7299 14.7 55.9199C16.3 54.2999 15.13 52.8799 13.92 51.5299C2.17 38.3499 2.16 20.2499 13.92 7.0199C15.22 5.5699 16.37 4.0799 14.5 2.4299C12.74 0.899896 11.38 2.2099 10.18 3.5199C3.49 10.8099 0.22 19.4299 0 29.2599Z" fill="#2342CA"/>
<path d="M13.45 29.35C13.42 34.84 15.15 39.74 18.42 44.12C19.51 45.59 20.82 46.82 22.66 45.39C24.32 44.1 23.66 42.67 22.62 41.19C17.03 33.28 17.06 25.35 22.7 17.28C23.76 15.76 24.23 14.34 22.54 13.12C20.8 11.86 19.56 12.93 18.5 14.33C15.15 18.78 13.41 23.77 13.45 29.36V29.35Z" fill="#2342CA"/>
<path d="M131.21 29.2599C130.99 39.1099 127.72 47.7399 121.03 55.0199C119.74 56.4199 118.28 57.7299 116.51 55.9199C114.91 54.2999 116.08 52.8799 117.29 51.5299C129.04 38.3499 129.05 20.2499 117.29 7.0199C115.99 5.5699 114.84 4.0799 116.71 2.4299C118.47 0.899896 119.83 2.2099 121.03 3.5199C127.71 10.7999 130.98 19.4299 131.2 29.2499L131.21 29.2599Z" fill="#2342CA"/>
<path d="M117.75 29.35C117.78 34.84 116.05 39.74 112.78 44.12C111.69 45.59 110.38 46.82 108.54 45.39C106.88 44.1 107.54 42.67 108.58 41.19C114.17 33.28 114.14 25.35 108.5 17.28C107.44 15.76 106.97 14.34 108.66 13.12C110.4 11.86 111.64 12.93 112.7 14.33C116.05 18.78 117.79 23.77 117.75 29.36V29.35Z" fill="#2342CA"/>
</g>
<defs>
<clipPath id="clip0_178_52529">
<rect width="131.21" height="120.62" fill="white"/>
</clipPath>
</defs>
</svg>
