<svg width="115" height="115" viewBox="0 0 115 115" fill="none" xmlns="http://www.w3.org/2000/svg">
<g clip-path="url(#clip0_178_42284)">
<path d="M102.26 20.9299C92.14 8.61991 78.95 1.85991 63.04 0.239914C41.31 -1.96009 12.37 10.8499 2.96999 37.9799C1.64999 41.7999 1.17999 45.9099 0.29999 49.8899C0.21999 50.2499 0.0999902 50.5999 -0.0100098 50.9499V59.7599C0.58999 63.3299 0.98999 66.9499 1.83999 70.4499C8.00999 95.7799 29.39 113.37 55.42 114.66C55.85 114.68 56.26 114.83 56.68 114.92H58.59C61.75 114.56 64.92 114.36 68.04 113.82C94.94 109.2 113.79 87.2199 114.65 59.9399C115.11 45.3899 111.52 32.1899 102.24 20.9199L102.26 20.9299ZM54.38 5.97991V30.7299C48.71 29.5399 43.28 28.3999 37.59 27.2099C38.13 25.8599 38.39 24.9499 38.84 24.1399C41.69 19.0399 44.67 14.0099 47.42 8.84991C48.99 5.90991 51.3 5.34991 54.38 5.97991ZM30.69 54.4099C30.82 46.1899 32.83 38.6299 35.79 31.4799C41.99 33.0599 48.05 34.5999 54.38 36.2199V54.4099H30.69ZM54.35 60.2699V78.2999C48.26 79.8199 42.3 81.2999 36.05 82.8599C32.79 75.9799 31.48 68.3199 30.56 60.2799H54.35V60.2699ZM41.65 7.75991C38.66 13.3399 35.72 18.8299 32.57 24.7199C29.18 22.8999 25.65 20.9899 21.87 18.9499C27.69 13.1299 34.37 9.95991 41.66 7.75991H41.65ZM17.88 22.6799C22.53 25.0499 26.94 27.2999 31.44 29.5899C27.94 37.4299 26.47 45.7899 25.79 54.4199H5.20999C6.33999 42.3599 9.76999 31.4299 17.88 22.6699V22.6799ZM5.46999 60.2399H25.86C25.73 68.9599 28.51 77.0299 31.34 85.1699C26.99 87.3899 22.68 89.5699 18.11 91.9099C10.13 82.9899 6.18999 72.4199 5.46999 60.2399ZM22.02 95.6799C25.79 93.5099 29.28 91.4899 32.76 89.4799C35.93 95.5099 38.94 101.23 42 107.04C34.5 105.12 28.28 100.87 22.02 95.6699V95.6799ZM54.4 109.21C51.51 109.47 49 109.36 47.42 106.22C44.51 100.43 41.34 94.7699 38.3 89.0499C38.07 88.6099 37.96 88.1099 37.63 87.1599C43.25 85.8399 48.73 84.5499 54.4 83.2199V109.21ZM92.7 18.9399C88.95 21.1199 85.47 23.1399 82.18 25.0499C78.91 19.0899 75.78 13.3499 72.61 7.56991C79.81 9.87991 86.35 13.6599 92.7 18.9299V18.9399ZM60.32 5.93991C62.84 5.64991 64.96 5.65991 66.74 8.21991C70.72 13.9499 74.17 19.9299 76.87 26.4599C73.55 28.6899 66.04 30.3799 60.32 30.2199V5.93991ZM60.3 36.2399C66.56 34.6399 72.63 33.0799 78.96 31.4699C81.92 38.5499 83.46 46.2199 83.94 54.3499H60.3V36.2399ZM60.29 60.3299H83.88C83.76 68.3299 81.6 75.7599 78.88 82.6599C72.6 81.1899 66.55 79.7799 60.29 78.3199V60.3299ZM67.73 105.6C66.15 108.77 63.84 109.89 60.32 109.11V83.7999C66.05 84.0799 71.47 85.2399 77.15 87.6399C73.92 93.7699 70.71 99.6299 67.73 105.61V105.6ZM73.27 106.78C76.04 101.19 78.84 95.5199 81.74 89.6499C85.18 91.5499 88.77 93.5399 92.61 95.6599C86.96 101.69 80.46 105.15 73.27 106.79V106.78ZM96.72 91.8799C92.19 89.5299 87.86 87.2799 83.36 84.9499C86.27 76.9399 89.11 68.9799 89.41 60.2399H109.31C108.66 72.2999 104.57 82.7999 96.73 91.8799H96.72ZM89.11 54.4199C88.52 45.8199 86.51 37.6199 83.41 29.5599C87.66 27.2499 91.89 24.9499 96.4 22.4899C104.64 31.3299 108.43 42.1199 109.31 54.4199H89.11Z" fill="#2342CA"/>
</g>
<defs>
<clipPath id="clip0_178_42284">
<rect width="114.71" height="114.93" fill="white"/>
</clipPath>
</defs>
</svg>
